<svg xmlns="http://www.w3.org/2000/svg" viewBox="30.8 18.5 178.4 203" width="178.4" height="203"><metadata><rdf:RDF xmlns:rdf="http://www.w3.org/1999/02/22-rdf-syntax-ns#" xmlns:dc="http://purl.org/dc/elements/1.1/"><rdf:Description><dc:creator>RealFaviconGenerator</dc:creator><dc:source>https://realfavicongenerator.net</dc:source></rdf:Description></rdf:RDF></metadata><polygon points="120,28 199.7,74 199.7,166 120,212 40.3,166 40.3,74" fill="#FFFFFF" stroke="#005F7A" stroke-width="7" stroke-linejoin="round"></polygon><g fill="#005F7A">
    <path transform="translate(60.81,98) scale(0.026000,-0.026000)" d="M82 0V698H542V581H214V412H504V295H214V117H542V0Z"></path>
    <path transform="translate(76.41,98) scale(0.026000,-0.026000)" d="M74 522H202V436H206Q220 481 259.0 507.5Q298 534 350 534Q450 534 502.5 463.5Q555 393 555 262Q555 130 502.5 59.0Q450 -12 350 -12Q298 -12 259.5 15.0Q221 42 206 87H202V-200H74ZM309 94Q359 94 390.0 127.0Q421 160 421 216V306Q421 362 390.0 395.5Q359 429 309 429Q263 429 232.5 406.0Q202 383 202 345V179Q202 138 232.5 116.0Q263 94 309 94Z"></path>
    <path transform="translate(92.01,98) scale(0.026000,-0.026000)" d="M138 598Q98 598 80.5 616.0Q63 634 63 662V682Q63 710 80.5 728.0Q98 746 138 746Q177 746 195.0 728.0Q213 710 213 682V662Q213 634 195.0 616.0Q177 598 138 598ZM74 522H202V0H74Z"></path>
    <path transform="translate(99.19,98) scale(0.026000,-0.026000)" d="M299 -12Q209 -12 146.5 20.0Q84 52 39 104L128 190Q164 148 208.5 126.0Q253 104 307 104Q368 104 399.0 130.5Q430 157 430 202Q430 237 410.0 259.0Q390 281 335 291L269 301Q60 334 60 504Q60 551 77.5 589.0Q95 627 128.0 654.0Q161 681 207.5 695.5Q254 710 313 710Q392 710 451.0 684.0Q510 658 552 607L462 522Q436 554 399.0 574.0Q362 594 306 594Q249 594 220.5 572.5Q192 551 192 512Q192 472 215.0 453.0Q238 434 289 425L354 413Q460 394 510.5 345.5Q561 297 561 210Q561 160 543.5 119.5Q526 79 492.5 49.5Q459 20 410.5 4.0Q362 -12 299 -12Z"></path>
    <path transform="translate(115.07,98) scale(0.026000,-0.026000)" d="M356 -12Q287 -12 231.0 11.0Q175 34 135.5 80.0Q96 126 74.0 193.0Q52 260 52 349Q52 437 74.0 504.5Q96 572 135.5 618.0Q175 664 231.0 687.0Q287 710 356 710Q425 710 481.0 687.0Q537 664 577.0 618.0Q617 572 638.5 504.5Q660 437 660 349Q660 260 638.5 193.0Q617 126 577.0 80.0Q537 34 481.0 11.0Q425 -12 356 -12ZM356 105Q431 105 475.5 155.0Q520 205 520 295V403Q520 493 475.5 543.0Q431 593 356 593Q281 593 236.5 543.0Q192 493 192 403V295Q192 205 236.5 155.0Q281 105 356 105Z"></path>
    <path transform="translate(133.59,98) scale(0.026000,-0.026000)" d="M82 698H336Q404 698 459.5 676.0Q515 654 554.5 610.5Q594 567 615.5 501.5Q637 436 637 349Q637 262 615.5 196.5Q594 131 554.5 87.5Q515 44 459.5 22.0Q404 0 336 0H82ZM336 117Q410 117 453.5 160.5Q497 204 497 294V404Q497 494 453.5 537.5Q410 581 336 581H214V117Z"></path>
    <path transform="translate(151.50,98) scale(0.026000,-0.026000)" d="M53 0V106H145V592H53V698H370V592H277V106H370V0Z"></path>
    <path transform="translate(162.50,98) scale(0.026000,-0.026000)" d="M353 -12Q284 -12 228.5 10.5Q173 33 133.5 78.0Q94 123 73.0 189.5Q52 256 52 344Q52 432 73.0 500.5Q94 569 133.5 615.5Q173 662 228.5 686.0Q284 710 353 710Q447 710 509.0 670.0Q571 630 608 549L495 489Q480 536 446.0 564.5Q412 593 353 593Q279 593 235.5 543.0Q192 493 192 403V293Q192 202 235.5 153.5Q279 105 353 105Q412 105 449.5 137.0Q487 169 504 216L611 153Q573 75 510.0 31.5Q447 -12 353 -12Z"></path>
  </g><line x1="58" y1="168" x2="182" y2="168" stroke="#005F7A" stroke-width="2" stroke-linecap="round"></line><line x1="58" y1="121" x2="182" y2="121" stroke="#ADB5BD" stroke-width="1.5" stroke-linecap="round" stroke-dasharray="1,5"></line><path d="M 58.0,168.0 C 59.5,167.5 63.9,166.3 66.9,164.9 C 69.8,163.5 72.8,162.1 75.7,159.8 C 78.7,157.6 81.6,155.2 84.6,151.6 C 87.5,148.0 90.5,142.2 93.4,138.3 C 96.4,134.3 99.3,127.3 102.3,128.0 C 105.2,128.7 108.2,138.4 111.1,142.3 C 114.1,146.2 117.0,149.0 120.0,151.5 C 123.0,154.0 125.9,155.8 128.9,157.4 C 131.8,159.0 134.8,160.2 137.7,161.2 C 140.7,162.2 143.6,163.0 146.6,163.6 C 149.5,164.3 152.5,164.8 155.4,165.2 C 158.4,165.6 161.3,165.9 164.3,166.2 C 167.2,166.5 170.2,166.7 173.1,166.8 C 176.1,167.0 180.5,167.2 182.0,167.3" fill="none" stroke="#43AC6A" stroke-width="3.5" stroke-linecap="round" opacity="0.8"></path><path d="M 62.0,168.0 C 63.1,167.9 66.3,167.7 68.4,167.5 C 70.6,167.2 72.7,167.0 74.9,166.6 C 77.0,166.2 79.2,165.8 81.3,165.2 C 83.5,164.6 85.6,163.9 87.8,162.8 C 89.9,161.8 92.1,160.7 94.2,159.0 C 96.4,157.3 98.5,155.4 100.7,152.6 C 102.8,149.7 105.0,146.6 107.1,142.0 C 109.3,137.3 111.4,129.8 113.6,124.4 C 115.7,119.1 117.9,110.6 120.0,110.0 C 122.1,109.4 124.3,117.8 126.4,121.1 C 128.6,124.5 130.7,127.4 132.9,130.1 C 135.0,132.8 137.2,135.2 139.3,137.4 C 141.5,139.6 143.6,141.5 145.8,143.2 C 147.9,145.0 150.1,146.5 152.2,148.0 C 154.4,149.4 156.5,150.7 158.7,151.8 C 160.8,153.0 163.0,154.0 165.1,154.9 C 167.3,155.8 169.4,156.7 171.6,157.4 C 173.7,158.2 176.9,159.1 178.0,159.4" fill="none" stroke="#F8AC59" stroke-width="4.5" stroke-linecap="round"></path><circle cx="120" cy="110" r="5.5" fill="#F36A5A" stroke="#FFFFFF" stroke-width="2.5"></circle></svg>